<svg id="visual" viewBox="0 0 1920 1080" width="1920" height="1080" xmlns="http://www.w3.org/2000/svg" xmlns:xlink="http://www.w3.org/1999/xlink" version="1.1"><path d="M0 966L45.7 973.7C91.3 981.3 182.7 996.7 274.2 990.3C365.7 984 457.3 956 548.8 948.8C640.3 941.7 731.7 955.3 823 964.5C914.3 973.7 1005.7 978.3 1097 980.2C1188.3 982 1279.7 981 1371.2 985.7C1462.7 990.3 1554.3 1000.7 1645.8 993.7C1737.3 986.7 1828.7 962.3 1874.3 950.2L1920 938L1920 1081L1874.3 1081C1828.7 1081 1737.3 1081 1645.8 1081C1554.3 1081 1462.7 1081 1371.2 1081C1279.7 1081 1188.3 1081 1097 1081C1005.7 1081 914.3 1081 823 1081C731.7 1081 640.3 1081 548.8 1081C457.3 1081 365.7 1081 274.2 1081C182.7 1081 91.3 1081 45.7 1081L0 1081Z" fill="#0066FF" stroke-linecap="round" stroke-linejoin="miter"></path></svg>